<?xml version="1.0" encoding="UTF-8"?>
<svg width="1000" height="300" viewBox="0 0 1000 300" xmlns="http://www.w3.org/2000/svg">
  <!-- Definitions -->
  <defs>
    <!-- Gradiente Evolution Principal -->
    <linearGradient id="evolutionGradient" x1="0%" y1="0%" x2="100%" y2="100%">
      <stop offset="0%" style="stop-color:#7C3AED;stop-opacity:1" />
      <stop offset="50%" style="stop-color:#EC4899;stop-opacity:1" />
      <stop offset="100%" style="stop-color:#06B6D4;stop-opacity:1" />
    </linearGradient>

    <!-- Background gradient -->
    <linearGradient id="bgGradient" x1="0%" y1="0%" x2="100%" y2="0%">
      <stop offset="0%" style="stop-color:#1a1a2e;stop-opacity:1" />
      <stop offset="100%" style="stop-color:#16213e;stop-opacity:1" />
    </linearGradient>

    <!-- Gradiente Radial para o centro -->
    <radialGradient id="centerGradient">
      <stop offset="0%" style="stop-color:#EC4899;stop-opacity:1" />
      <stop offset="100%" style="stop-color:#7C3AED;stop-opacity:1" />
    </radialGradient>

    <!-- Pattern -->
    <pattern id="dots" x="0" y="0" width="30" height="30" patternUnits="userSpaceOnUse">
      <circle cx="15" cy="15" r="1" fill="#ffffff" opacity="0.03" />
    </pattern>

    <!-- Glow filter -->
    <filter id="glow">
      <feGaussianBlur stdDeviation="4" result="coloredBlur"/>
      <feMerge>
        <feMergeNode in="coloredBlur"/>
        <feMergeNode in="SourceGraphic"/>
      </feMerge>
    </filter>
  </defs>

  <!-- Background -->
  <rect width="1000" height="300" fill="url(#bgGradient)" />

  <!-- Pattern overlay -->
  <rect width="1000" height="300" fill="url(#dots)" />

  <!-- Gradient orbs for depth -->
  <circle cx="150" cy="150" r="100" fill="url(#evolutionGradient)" opacity="0.1" filter="blur(60px)" />
  <circle cx="850" cy="150" r="120" fill="url(#evolutionGradient)" opacity="0.08" filter="blur(80px)" />

  <!-- Central content -->
  <g transform="translate(450, 120)">
    <!-- Logo -->
    <g transform="translate(-240, -55)">
      <g transform="scale(1.8)">
        <!-- Logo glow -->
        <g opacity="0.6" filter="url(#glow)">
          <path d="M50,10 A40,40 0 0,0 10,50 L18,50 A32,32 0 0,1 50,18 Z"
                fill="url(#evolutionGradient)" />
          <path d="M50,90 A40,40 0 0,0 90,50 L82,50 A32,32 0 0,1 50,82 Z"
                fill="url(#evolutionGradient)" />
        </g>

        <!-- Main logo -->
        <path d="M50,10 A40,40 0 0,0 10,50 L18,50 A32,32 0 0,1 50,18 Z"
              fill="url(#evolutionGradient)" />
        <path d="M50,90 A40,40 0 0,0 90,50 L82,50 A32,32 0 0,1 50,82 Z"
              fill="url(#evolutionGradient)" />

        <!-- Center -->
        <circle cx="50" cy="50" r="10" fill="#EC4899" opacity="0.3"/>
        <circle cx="50" cy="50" r="7" fill="url(#centerGradient)" />
      </g>
    </g>

    <!-- Brand text -->
    <text x="-60" y="10" font-family="Inter, -apple-system, sans-serif" font-size="72"
          font-weight="800" letter-spacing="-2">
      <tspan fill="url(#evolutionGradient)">Pivot</tspan><tspan fill="#64748B">PHP</tspan>
    </text>

    <!-- Tagline -->
    <text x="-60" y="45" font-family="Inter, -apple-system, sans-serif" font-size="20"
          font-weight="400" fill="#E2E8F0" opacity="0.9">
      The Evolutionary PHP Microframework
    </text>

    <!-- Metrics badges -->
    <g transform="translate(-60, 70)">
      <!-- Performance badge -->
      <rect x="0" y="0" width="120" height="32" rx="16"
            fill="rgba(124,58,237,0.2)" stroke="rgba(124,58,237,0.4)" stroke-width="1" />
      <text x="60" y="21" font-family="Inter" font-size="14" font-weight="600"
            text-anchor="middle" fill="#C084FC">2,122 req/sec</text>

      <!-- Response time badge -->
      <rect x="130" y="0" width="120" height="32" rx="16"
            fill="rgba(236,72,153,0.2)" stroke="rgba(236,72,153,0.4)" stroke-width="1" />
      <text x="190" y="21" font-family="Inter" font-size="14" font-weight="600"
            text-anchor="middle" fill="#F9A8D4">&lt;1ms</text>

      <!-- Zero config badge -->
      <rect x="260" y="0" width="120" height="32" rx="16"
            fill="rgba(6,182,212,0.2)" stroke="rgba(6,182,212,0.4)" stroke-width="1" />
      <text x="320" y="21" font-family="Inter" font-size="14" font-weight="600"
            text-anchor="middle" fill="#67E8F9">Zero Config</text>
    </g>
  </g>

  <!-- Decorative elements -->
  <g opacity="0.6">
    <!-- Left decoration -->
    <circle cx="50" cy="150" r="3" fill="#7C3AED" />
    <circle cx="70" cy="150" r="3" fill="#EC4899" />
    <circle cx="90" cy="150" r="3" fill="#06B6D4" />

    <!-- Right decoration -->
    <circle cx="910" cy="150" r="3" fill="#06B6D4" />
    <circle cx="930" cy="150" r="3" fill="#EC4899" />
    <circle cx="950" cy="150" r="3" fill="#7C3AED" />
  </g>
</svg>
